<svg xmlns="http://www.w3.org/2000/svg" xmlns:xlink="http://www.w3.org/1999/xlink" viewBox="0 0 350.76 213.57">
  <defs>
    <linearGradient id="a305f68d-8976-458e-a01c-ff24e2d27cdf" x1="164.31" y1="137.31" x2="164.31" y2="11.97" gradientUnits="userSpaceOnUse">
      <stop offset="0" stop-color="#6873e2"/>
      <stop offset="0.15" stop-color="#747ee2"/>
      <stop offset="0.43" stop-color="#949be3"/>
      <stop offset="0.8" stop-color="#c8cae5"/>
      <stop offset="1" stop-color="#e6e6e6"/>
    </linearGradient>
    <linearGradient id="bde45dfe-0a62-4af5-9c99-9c69b637f486" x1="164.03" y1="78.57" x2="164.03" y2="4.96" gradientUnits="userSpaceOnUse">
      <stop offset="0" stop-color="#6873e2"/>
      <stop offset="0.43" stop-color="#6a75e2"/>
      <stop offset="0.58" stop-color="#717be2"/>
      <stop offset="0.69" stop-color="#7c86e3"/>
      <stop offset="0.78" stop-color="#8d95e3"/>
      <stop offset="0.86" stop-color="#a3a9e4"/>
      <stop offset="0.93" stop-color="#bfc2e5"/>
      <stop offset="0.99" stop-color="#dedfe6"/>
      <stop offset="1" stop-color="#e6e6e6"/>
    </linearGradient>
    <linearGradient id="e3e8720e-f6c5-4c3b-b551-6d529d0986b1" x1="97.91" y1="106.88" x2="350.76" y2="106.88" gradientUnits="userSpaceOnUse">
      <stop offset="0.68" stop-color="#333"/>
      <stop offset="0.83" stop-color="#353535"/>
      <stop offset="0.89" stop-color="#3c3c3c"/>
      <stop offset="0.92" stop-color="#474747"/>
      <stop offset="0.96" stop-color="#585858"/>
      <stop offset="0.98" stop-color="#6e6e6e"/>
      <stop offset="1" stop-color="gray"/>
    </linearGradient>
    <linearGradient id="b1cea999-db7b-4f8d-9261-e01e4a5d76f3" x1="99.3" y1="103.93" x2="347.56" y2="103.93" gradientUnits="userSpaceOnUse">
      <stop offset="0" stop-color="#6873e2"/>
      <stop offset="0.27" stop-color="#8b93e3"/>
      <stop offset="1" stop-color="#e6e6e6"/>
    </linearGradient>
    <radialGradient id="a7e0cf66-b9b8-49b0-a0e0-5b802a0a4399" cx="293.19" cy="20.08" r="2.27" gradientTransform="translate(163.99 -243.87) rotate(60)" gradientUnits="userSpaceOnUse">
      <stop offset="0" stop-color="#e6e6e6"/>
      <stop offset="0.08" stop-color="#c4c7e5"/>
      <stop offset="0.27" stop-color="#6d78e2"/>
      <stop offset="0.28" stop-color="#6873e2"/>
      <stop offset="0.29" stop-color="#6873e2"/>
      <stop offset="1" stop-color="#6873e2"/>
    </radialGradient>
    <linearGradient id="b90ef2e0-3c19-4246-b8f9-2f6bbfa7039d" x1="99.46" y1="209.65" x2="99.46" y2="104.38" xlink:href="#b1cea999-db7b-4f8d-9261-e01e4a5d76f3"/>
  </defs>
  <g id="bc0b3d52-2318-4059-b632-754b7f81b15b" data-name="Layer 2">
    <g id="e474ad3b-b9b3-4d60-873d-f622b93383fe" data-name="Layer 3">
      <g>
        <path d="M255.93,12l-91,74.47a1.16,1.16,0,0,1-1.47,0L72.56,12.08a8.8,8.8,0,0,0-2.79,6.42v110a8.81,8.81,0,0,0,8.82,8.81H250a8.81,8.81,0,0,0,8.81-8.81V18.5A8.76,8.76,0,0,0,255.93,12Z" style="fill: url(#a305f68d-8976-458e-a01c-ff24e2d27cdf)"/>
        <path d="M167.25,77.45l79.69-63.26A5.18,5.18,0,0,0,243.72,5H84.33a5.17,5.17,0,0,0-3.21,9.23l79.69,63.26A5.2,5.2,0,0,0,167.25,77.45Z" style="fill: url(#bde45dfe-0a62-4af5-9c99-9c69b637f486)"/>
      </g>
      <path d="M98.85,147.44l151-145c1.43-1.52,3-2.78,5-2l91.49,33.31c3.51,1.36,5.77,6.83,3.51,9.69l-136,168a7.21,7.21,0,0,1-9,1l-102-54C98.85,156.44,96.48,150,98.85,147.44Z" style="fill: url(#e3e8720e-f6c5-4c3b-b551-6d529d0986b1)"/>
      <path d="M100.41,146,251.22,1A3.6,3.6,0,0,1,255,.22L344.28,33a5,5,0,0,1,2.16,7.84L210.85,206.44a4.29,4.29,0,0,1-5,1L101.18,151.8A3.61,3.61,0,0,1,100.41,146Z" style="fill: url(#b1cea999-db7b-4f8d-9261-e01e4a5d76f3)"/>
      <rect x="150.39" y="175.41" width="3.67" height="12.4" rx="1.84" transform="translate(-79.45 231.47) rotate(-62.18)" style="fill: #fff"/>
      <ellipse cx="293.19" cy="20.08" rx="2.28" ry="2.25" transform="matrix(0.5, -0.87, 0.87, 0.5, 129.21, 263.95)" style="fill: url(#a7e0cf66-b9b8-49b0-a0e0-5b802a0a4399)"/>
      <path d="M181.73,163.11a32.13,32.13,0,0,0,.28-4.18c0-18.18-15-32.92-33.54-32.92a33.74,33.74,0,0,0-17.91,5.1c-7.33-21.36-27.11-36.67-50.37-36.67-29.26,0-53,24.22-53.39,54.24C11.28,152.79,0,165.18,0,179.84c0,18,17,32.6,38,32.6H166.32l.34,0,.83,0c17.36,0,31.43-11.68,31.43-26.08C198.92,176.21,191.93,167.42,181.73,163.11Z" style="fill: url(#b90ef2e0-3c19-4246-b8f9-2f6bbfa7039d)"/>
    </g>
  </g>
</svg>
