<svg xmlns="http://www.w3.org/2000/svg" xmlns:xlink="http://www.w3.org/1999/xlink" width="1920" height="1080" viewBox="0 0 1920 1080">
  <defs>
    <clipPath id="clip-Crud_Blog_1">
      <rect width="1920" height="1080"/>
    </clipPath>
  </defs>
  <g id="Crud_Blog_1" data-name="Crud Blog – 1" clip-path="url(#clip-Crud_Blog_1)">
    <rect width="1920" height="1080" fill="#fff"/>
    <rect id="Rectangle_1" data-name="Rectangle 1" width="1920" height="1080" fill="#1c1d1e"/>
    <g id="Group_27" data-name="Group 27" transform="translate(-872 -946)">
      <g id="Ellipse_44" data-name="Ellipse 44" transform="translate(926 980)" fill="none" stroke="#fff" stroke-width="3">
        <circle cx="34" cy="34" r="34" stroke="none"/>
        <circle cx="34" cy="34" r="32.5" fill="none"/>
      </g>
      <path id="Icon_awesome-arrow-left" data-name="Icon awesome-arrow-left" d="M18.105,31.3l-1.561,1.561a1.681,1.681,0,0,1-2.384,0L.492,19.2a1.681,1.681,0,0,1,0-2.384L14.161,3.143a1.681,1.681,0,0,1,2.384,0L18.105,4.7a1.689,1.689,0,0,1-.028,2.412L9.6,15.188H29.813A1.683,1.683,0,0,1,31.5,16.875v2.25a1.683,1.683,0,0,1-1.687,1.688H9.6l8.473,8.072A1.677,1.677,0,0,1,18.105,31.3Z" transform="translate(944.354 996)" fill="#fff"/>
    </g>
    <text id="CRUD" transform="translate(144 96)" fill="#fff" font-size="75" font-family="SegoeUI, Segoe UI" letter-spacing="-0.05em"><tspan x="0" y="0">CRUD</tspan></text>
    <g id="Group_49" data-name="Group 49" transform="translate(13 -73)">
      <g id="Group_2" data-name="Group 2" transform="translate(-1 -241)">
        <rect id="Rectangle_5" data-name="Rectangle 5" width="180" height="55" rx="27.5" transform="translate(89 559)" fill="#357edc"/>
        <text id="Posts" transform="translate(157 596)" fill="#fff" font-size="22" font-family="SegoeUI, Segoe UI" letter-spacing="-0.09em"><tspan x="0" y="0">Posts</tspan></text>
      </g>
      <g id="Group_29" data-name="Group 29" transform="translate(-1 -315)">
        <rect id="Rectangle_5-2" data-name="Rectangle 5" width="180" height="55" rx="27.5" transform="translate(89 559)" fill="#357edc"/>
        <text id="Home" transform="translate(153 596)" fill="#fff" font-size="22" font-family="SegoeUI, Segoe UI" letter-spacing="-0.09em"><tspan x="0" y="0">Home</tspan></text>
      </g>
      <g id="Group_30" data-name="Group 30" transform="translate(-8 -70)">
        <rect id="Rectangle_5-3" data-name="Rectangle 5" width="180" height="55" rx="27.5" transform="translate(96 462)" fill="#357edc"/>
        <text id="Contact" transform="translate(155 499)" fill="#fff" font-size="22" font-family="SegoeUI, Segoe UI" letter-spacing="-0.09em"><tspan x="0" y="0">Contact</tspan></text>
      </g>
      <g id="Group_59" data-name="Group 59" transform="translate(-1 -93)">
        <rect id="Rectangle_5-4" data-name="Rectangle 5" width="180" height="55" rx="27.5" transform="translate(89 559)" fill="#357edc"/>
        <text id="Blog" transform="translate(157 596)" fill="#fff" font-size="22" font-family="SegoeUI, Segoe UI" letter-spacing="-0.09em"><tspan x="0" y="0">Blog</tspan></text>
      </g>
    </g>
    <g id="Group_33" data-name="Group 33" transform="translate(-3 366)">
      <rect id="Rectangle_5-5" data-name="Rectangle 5" width="180" height="55" rx="27.5" transform="translate(96 462)" fill="#357edc"/>
      <text id="Exit" transform="translate(172 499)" fill="#fff" font-size="22" font-family="SegoeUI, Segoe UI" letter-spacing="-0.09em"><tspan x="0" y="0">Exit</tspan></text>
    </g>
    <text id="Hugo_Castro" data-name="Hugo Castro" transform="translate(101 927)" fill="#fff" font-size="33" font-family="SegoeUI, Segoe UI" letter-spacing="-0.05em"><tspan x="0" y="0">Hugo Castro</tspan></text>
    <g id="Group_62" data-name="Group 62" transform="translate(-893.4 33)">
      <g id="Group_4" data-name="Group 4" transform="translate(2393.4 853.4)">
        <g id="Group_2-2" data-name="Group 2">
          <rect id="Rectangle_5-6" data-name="Rectangle 5" width="180" height="55" rx="27.5" transform="translate(0 -0.4)" fill="#357edc"/>
          <text id="Save" transform="translate(71 36.6)" fill="#fff" font-size="22" font-family="SegoeUI, Segoe UI" letter-spacing="-0.09em"><tspan x="0" y="0">Save</tspan></text>
          <text id="Save-2" data-name="Save" transform="translate(71 36.6)" fill="#fff" font-size="22" font-family="SegoeUI, Segoe UI" letter-spacing="-0.09em"><tspan x="0" y="0">Save</tspan></text>
        </g>
      </g>
      <g id="Group_34" data-name="Group 34" transform="translate(1375.4 853.4)">
        <g id="Group_2-3" data-name="Group 2">
          <rect id="Rectangle_5-7" data-name="Rectangle 5" width="180" height="55" rx="27.5" transform="translate(0 -0.4)" fill="#dc3535"/>
          <text id="Cancel" transform="translate(63 36.6)" fill="#fff" font-size="22" font-family="SegoeUI, Segoe UI" letter-spacing="-0.09em"><tspan x="0" y="0">Cancel</tspan></text>
        </g>
      </g>
      <g id="Rectangle_40" data-name="Rectangle 40" transform="translate(1330.4 164)" fill="#fff" stroke="#707070" stroke-width="1">
        <rect width="1287" height="50" rx="25" stroke="none"/>
        <rect x="0.5" y="0.5" width="1286" height="49" rx="24.5" fill="none"/>
      </g>
      <text id="Title" transform="translate(1330.4 151)" fill="#fff" font-size="33" font-family="SegoeUI, Segoe UI" letter-spacing="-0.05em"><tspan x="0" y="0">Title</tspan></text>
      <g id="Rectangle_41" data-name="Rectangle 41" transform="translate(1330.4 295)" fill="#fff" stroke="#707070" stroke-width="1">
        <rect width="1287" height="50" rx="25" stroke="none"/>
        <rect x="0.5" y="0.5" width="1286" height="49" rx="24.5" fill="none"/>
      </g>
      <text id="Categories_" data-name="Categories
" transform="translate(1330.4 278)" fill="#fff" font-size="33" font-family="SegoeUI, Segoe UI" letter-spacing="-0.05em"><tspan x="0" y="0">Categories</tspan><tspan x="0" y="44"></tspan></text>
      <g id="Rectangle_42" data-name="Rectangle 42" transform="translate(1330.4 462)" fill="#fff" stroke="#707070" stroke-width="1">
        <rect width="1287" height="360" rx="32" stroke="none"/>
        <rect x="0.5" y="0.5" width="1286" height="359" rx="31.5" fill="none"/>
      </g>
      <text id="Description" transform="translate(1330.4 423)" fill="#fff" font-size="33" font-family="SegoeUI, Segoe UI" letter-spacing="-0.05em"><tspan x="0" y="0">Description</tspan></text>
    </g>
  </g>
</svg>
