<svg xmlns="http://www.w3.org/2000/svg" xmlns:xlink="http://www.w3.org/1999/xlink" width="1920" height="1080" viewBox="0 0 1920 1080">
  <defs>
    <clipPath id="clip-Crud_Port">
      <rect width="1920" height="1080"/>
    </clipPath>
  </defs>
  <g id="Crud_Port" data-name="Crud Port" clip-path="url(#clip-Crud_Port)">
    <rect width="1920" height="1080" fill="#fff"/>
    <rect id="Rectangle_1" data-name="Rectangle 1" width="1920" height="1080" fill="#1c1d1e"/>
    <g id="Group_27" data-name="Group 27" transform="translate(-872 -946)">
      <g id="Ellipse_44" data-name="Ellipse 44" transform="translate(926 980)" fill="none" stroke="#fff" stroke-width="3">
        <circle cx="34" cy="34" r="34" stroke="none"/>
        <circle cx="34" cy="34" r="32.5" fill="none"/>
      </g>
      <path id="Icon_awesome-arrow-left" data-name="Icon awesome-arrow-left" d="M18.105,31.3l-1.561,1.561a1.681,1.681,0,0,1-2.384,0L.492,19.2a1.681,1.681,0,0,1,0-2.384L14.161,3.143a1.681,1.681,0,0,1,2.384,0L18.105,4.7a1.689,1.689,0,0,1-.028,2.412L9.6,15.188H29.813A1.683,1.683,0,0,1,31.5,16.875v2.25a1.683,1.683,0,0,1-1.687,1.688H9.6l8.473,8.072A1.677,1.677,0,0,1,18.105,31.3Z" transform="translate(944.354 996)" fill="#fff"/>
    </g>
    <text id="CRUD" transform="translate(144 96)" fill="#fff" font-size="75" font-family="SegoeUI, Segoe UI" letter-spacing="-0.05em"><tspan x="0" y="0">CRUD</tspan></text>
    <g id="Group_49" data-name="Group 49" transform="translate(13 -73)">
      <g id="Group_2" data-name="Group 2" transform="translate(-1 -241)">
        <rect id="Rectangle_5" data-name="Rectangle 5" width="180" height="55" rx="27.5" transform="translate(89 559)" fill="#357edc"/>
        <text id="Posts" transform="translate(157 596)" fill="#fff" font-size="22" font-family="SegoeUI, Segoe UI" letter-spacing="-0.09em"><tspan x="0" y="0">Posts</tspan></text>
      </g>
      <g id="Group_29" data-name="Group 29" transform="translate(-1 -315)">
        <rect id="Rectangle_5-2" data-name="Rectangle 5" width="180" height="55" rx="27.5" transform="translate(89 559)" fill="#357edc"/>
        <text id="Home" transform="translate(153 596)" fill="#fff" font-size="22" font-family="SegoeUI, Segoe UI" letter-spacing="-0.09em"><tspan x="0" y="0">Home</tspan></text>
      </g>
      <g id="Group_30" data-name="Group 30" transform="translate(-8 -70)">
        <rect id="Rectangle_5-3" data-name="Rectangle 5" width="180" height="55" rx="27.5" transform="translate(96 462)" fill="#357edc"/>
        <text id="Contact" transform="translate(155 499)" fill="#fff" font-size="22" font-family="SegoeUI, Segoe UI" letter-spacing="-0.09em"><tspan x="0" y="0">Contact</tspan></text>
      </g>
    </g>
    <g id="Group_33" data-name="Group 33" transform="translate(-3 366)">
      <rect id="Rectangle_5-4" data-name="Rectangle 5" width="180" height="55" rx="27.5" transform="translate(96 462)" fill="#357edc"/>
      <text id="Exit" transform="translate(172 499)" fill="#fff" font-size="22" font-family="SegoeUI, Segoe UI" letter-spacing="-0.09em"><tspan x="0" y="0">Exit</tspan></text>
    </g>
    <g id="Group_48" data-name="Group 48" transform="translate(308 -360)">
      <rect id="Rectangle_5-5" data-name="Rectangle 5" width="180" height="55" rx="27.5" transform="translate(108 531)" fill="#357edc"/>
      <text id="New" transform="translate(178 568)" fill="#fff" font-size="22" font-family="SegoeUI, Segoe UI" letter-spacing="-0.09em"><tspan x="0" y="0">New</tspan></text>
    </g>
    <text id="Hugo_Castro" data-name="Hugo Castro" transform="translate(101 927)" fill="#fff" font-size="33" font-family="SegoeUI, Segoe UI" letter-spacing="-0.05em"><tspan x="0" y="0">Hugo Castro</tspan></text>
    <g id="Group_35" data-name="Group 35" transform="translate(-27 66)">
      <g id="Path_21" data-name="Path 21" transform="translate(446 184)" fill="#676767">
        <path d="M 244.9593658447266 147.6608734130859 L 18.43779563903809 147.6608734130859 C 13.64642906188965 147.6608734130859 9.141862869262695 145.7950134277344 5.753862857818604 142.4070434570313 C 2.365862607955933 139.01904296875 0.4999959468841553 134.5144805908203 0.4999959468841553 129.7231140136719 L 0.4999959468841553 18.43781089782715 C 0.4999959468841553 13.64644432067871 2.365862607955933 9.141878128051758 5.753862857818604 5.753877639770508 C 9.141862869262695 2.365877628326416 13.64642906188965 0.5000110268592834 18.43779563903809 0.5000110268592834 L 244.9593658447266 0.5000110268592834 C 249.750732421875 0.5000110268592834 254.2552947998047 2.365877628326416 257.643310546875 5.753877639770508 C 261.03125 9.141878128051758 262.8971252441406 13.64644432067871 262.8971252441406 18.43781089782715 L 262.8971252441406 129.7231140136719 C 262.8971252441406 134.5144805908203 261.03125 139.01904296875 257.643310546875 142.4070434570313 C 254.2552947998047 145.7950134277344 249.750732421875 147.6608734130859 244.9593658447266 147.6608734130859 Z" stroke="none"/>
        <path d="M 18.43778991699219 1.000015258789063 C 13.77999877929688 1.000015258789063 9.400955200195313 2.8138427734375 6.107391357421875 6.107406616210938 C 2.8138427734375 9.400970458984375 1 13.78001403808594 1 18.43780517578125 L 1 129.7231140136719 C 1 134.3809051513672 2.8138427734375 138.7599182128906 6.107391357421875 142.0534820556641 C 9.400955200195313 145.3470458984375 13.77999877929688 147.1608734130859 18.43778991699219 147.1608734130859 L 244.9593658447266 147.1608734130859 C 249.6171569824219 147.1608734130859 253.9961547851563 145.3470458984375 257.2897338867188 142.0534820556641 C 260.5832824707031 138.7599182128906 262.3971252441406 134.3809051513672 262.3971252441406 129.7231140136719 L 262.3971252441406 18.43780517578125 C 262.3971252441406 13.78001403808594 260.5832824707031 9.400970458984375 257.2897338867188 6.107406616210938 C 253.9961547851563 2.8138427734375 249.6171569824219 1.000015258789063 244.9593658447266 1.000015258789063 L 18.43778991699219 1.000015258789063 M 18.43778991699219 1.52587890625e-05 L 244.9593658447266 1.52587890625e-05 C 255.1422271728516 1.52587890625e-05 263.3971252441406 8.2548828125 263.3971252441406 18.43780517578125 L 263.3971252441406 129.7231140136719 C 263.3971252441406 139.906005859375 255.1422271728516 148.1608734130859 244.9593658447266 148.1608734130859 L 18.43778991699219 148.1608734130859 C 8.254867553710938 148.1608734130859 0 139.906005859375 0 129.7231140136719 L 0 18.43780517578125 C 0 8.2548828125 8.254867553710938 1.52587890625e-05 18.43778991699219 1.52587890625e-05 Z" stroke="none" fill="#707070"/>
      </g>
      <text id="Ufo_Night" data-name="Ufo Night" transform="translate(729 209)" fill="#fff" font-size="14" font-family="SegoeUI, Segoe UI" letter-spacing="-0.08em"><tspan x="0" y="0">Ufo Night</tspan></text>
    </g>
    <g id="Group_36" data-name="Group 36" transform="translate(-957 -313)">
      <g id="Group_2-2" data-name="Group 2" transform="translate(1653 668)">
        <rect id="Rectangle_5-6" data-name="Rectangle 5" width="131" height="38" rx="19" fill="#357edc"/>
        <text id="Edit" transform="translate(48 28)" fill="#fff" font-size="22" font-family="SegoeUI, Segoe UI" letter-spacing="-0.09em"><tspan x="0" y="0">Edit</tspan></text>
      </g>
    </g>
    <g id="Group_37" data-name="Group 37" transform="translate(-815 -313)">
      <g id="Group_2-3" data-name="Group 2" transform="translate(1653 668)">
        <rect id="Rectangle_5-7" data-name="Rectangle 5" width="131" height="38" rx="19" fill="#357edc"/>
        <text id="Delete" transform="translate(39 28)" fill="#fff" font-size="22" font-family="SegoeUI, Segoe UI" letter-spacing="-0.09em"><tspan x="0" y="0">Delete</tspan></text>
      </g>
    </g>
    <g id="Group_38" data-name="Group 38" transform="translate(-25 245)">
      <g id="Path_21-2" data-name="Path 21" transform="translate(446 184)" fill="#676767">
        <path d="M 244.9593658447266 147.6608734130859 L 18.43779563903809 147.6608734130859 C 13.64642906188965 147.6608734130859 9.141862869262695 145.7950134277344 5.753862857818604 142.4070434570313 C 2.365862607955933 139.01904296875 0.4999959468841553 134.5144805908203 0.4999959468841553 129.7231140136719 L 0.4999959468841553 18.43781089782715 C 0.4999959468841553 13.64644432067871 2.365862607955933 9.141878128051758 5.753862857818604 5.753877639770508 C 9.141862869262695 2.365877628326416 13.64642906188965 0.5000110268592834 18.43779563903809 0.5000110268592834 L 244.9593658447266 0.5000110268592834 C 249.750732421875 0.5000110268592834 254.2552947998047 2.365877628326416 257.643310546875 5.753877639770508 C 261.03125 9.141878128051758 262.8971252441406 13.64644432067871 262.8971252441406 18.43781089782715 L 262.8971252441406 129.7231140136719 C 262.8971252441406 134.5144805908203 261.03125 139.01904296875 257.643310546875 142.4070434570313 C 254.2552947998047 145.7950134277344 249.750732421875 147.6608734130859 244.9593658447266 147.6608734130859 Z" stroke="none"/>
        <path d="M 18.43778991699219 1.000015258789063 C 13.77999877929688 1.000015258789063 9.400955200195313 2.8138427734375 6.107391357421875 6.107406616210938 C 2.8138427734375 9.400970458984375 1 13.78001403808594 1 18.43780517578125 L 1 129.7231140136719 C 1 134.3809051513672 2.8138427734375 138.7599182128906 6.107391357421875 142.0534820556641 C 9.400955200195313 145.3470458984375 13.77999877929688 147.1608734130859 18.43778991699219 147.1608734130859 L 244.9593658447266 147.1608734130859 C 249.6171569824219 147.1608734130859 253.9961547851563 145.3470458984375 257.2897338867188 142.0534820556641 C 260.5832824707031 138.7599182128906 262.3971252441406 134.3809051513672 262.3971252441406 129.7231140136719 L 262.3971252441406 18.43780517578125 C 262.3971252441406 13.78001403808594 260.5832824707031 9.400970458984375 257.2897338867188 6.107406616210938 C 253.9961547851563 2.8138427734375 249.6171569824219 1.000015258789063 244.9593658447266 1.000015258789063 L 18.43778991699219 1.000015258789063 M 18.43778991699219 1.52587890625e-05 L 244.9593658447266 1.52587890625e-05 C 255.1422271728516 1.52587890625e-05 263.3971252441406 8.2548828125 263.3971252441406 18.43780517578125 L 263.3971252441406 129.7231140136719 C 263.3971252441406 139.906005859375 255.1422271728516 148.1608734130859 244.9593658447266 148.1608734130859 L 18.43778991699219 148.1608734130859 C 8.254867553710938 148.1608734130859 0 139.906005859375 0 129.7231140136719 L 0 18.43780517578125 C 0 8.2548828125 8.254867553710938 1.52587890625e-05 18.43778991699219 1.52587890625e-05 Z" stroke="none" fill="#707070"/>
      </g>
      <text id="Ufo_Night-2" data-name="Ufo Night" transform="translate(729 209)" fill="#fff" font-size="14" font-family="SegoeUI, Segoe UI" letter-spacing="-0.08em"><tspan x="0" y="0">Ufo Night</tspan></text>
    </g>
    <g id="Group_39" data-name="Group 39" transform="translate(-955 -134)">
      <g id="Group_2-4" data-name="Group 2" transform="translate(1653 668)">
        <rect id="Rectangle_5-8" data-name="Rectangle 5" width="131" height="38" rx="19" fill="#357edc"/>
        <text id="Edit-2" data-name="Edit" transform="translate(48 28)" fill="#fff" font-size="22" font-family="SegoeUI, Segoe UI" letter-spacing="-0.09em"><tspan x="0" y="0">Edit</tspan></text>
      </g>
    </g>
    <g id="Group_40" data-name="Group 40" transform="translate(-813 -134)">
      <g id="Group_2-5" data-name="Group 2" transform="translate(1653 668)">
        <rect id="Rectangle_5-9" data-name="Rectangle 5" width="131" height="38" rx="19" fill="#357edc"/>
        <text id="Delete-2" data-name="Delete" transform="translate(39 28)" fill="#fff" font-size="22" font-family="SegoeUI, Segoe UI" letter-spacing="-0.09em"><tspan x="0" y="0">Delete</tspan></text>
      </g>
    </g>
    <g id="Group_41" data-name="Group 41" transform="translate(-23 424)">
      <g id="Path_21-3" data-name="Path 21" transform="translate(446 184)" fill="#676767">
        <path d="M 244.9593658447266 147.6608734130859 L 18.43779563903809 147.6608734130859 C 13.64642906188965 147.6608734130859 9.141862869262695 145.7950134277344 5.753862857818604 142.4070434570313 C 2.365862607955933 139.01904296875 0.4999959468841553 134.5144805908203 0.4999959468841553 129.7231140136719 L 0.4999959468841553 18.43781089782715 C 0.4999959468841553 13.64644432067871 2.365862607955933 9.141878128051758 5.753862857818604 5.753877639770508 C 9.141862869262695 2.365877628326416 13.64642906188965 0.5000110268592834 18.43779563903809 0.5000110268592834 L 244.9593658447266 0.5000110268592834 C 249.750732421875 0.5000110268592834 254.2552947998047 2.365877628326416 257.643310546875 5.753877639770508 C 261.03125 9.141878128051758 262.8971252441406 13.64644432067871 262.8971252441406 18.43781089782715 L 262.8971252441406 129.7231140136719 C 262.8971252441406 134.5144805908203 261.03125 139.01904296875 257.643310546875 142.4070434570313 C 254.2552947998047 145.7950134277344 249.750732421875 147.6608734130859 244.9593658447266 147.6608734130859 Z" stroke="none"/>
        <path d="M 18.43778991699219 1.000015258789063 C 13.77999877929688 1.000015258789063 9.400955200195313 2.8138427734375 6.107391357421875 6.107406616210938 C 2.8138427734375 9.400970458984375 1 13.78001403808594 1 18.43780517578125 L 1 129.7231140136719 C 1 134.3809051513672 2.8138427734375 138.7599182128906 6.107391357421875 142.0534820556641 C 9.400955200195313 145.3470458984375 13.77999877929688 147.1608734130859 18.43778991699219 147.1608734130859 L 244.9593658447266 147.1608734130859 C 249.6171569824219 147.1608734130859 253.9961547851563 145.3470458984375 257.2897338867188 142.0534820556641 C 260.5832824707031 138.7599182128906 262.3971252441406 134.3809051513672 262.3971252441406 129.7231140136719 L 262.3971252441406 18.43780517578125 C 262.3971252441406 13.78001403808594 260.5832824707031 9.400970458984375 257.2897338867188 6.107406616210938 C 253.9961547851563 2.8138427734375 249.6171569824219 1.000015258789063 244.9593658447266 1.000015258789063 L 18.43778991699219 1.000015258789063 M 18.43778991699219 1.52587890625e-05 L 244.9593658447266 1.52587890625e-05 C 255.1422271728516 1.52587890625e-05 263.3971252441406 8.2548828125 263.3971252441406 18.43780517578125 L 263.3971252441406 129.7231140136719 C 263.3971252441406 139.906005859375 255.1422271728516 148.1608734130859 244.9593658447266 148.1608734130859 L 18.43778991699219 148.1608734130859 C 8.254867553710938 148.1608734130859 0 139.906005859375 0 129.7231140136719 L 0 18.43780517578125 C 0 8.2548828125 8.254867553710938 1.52587890625e-05 18.43778991699219 1.52587890625e-05 Z" stroke="none" fill="#707070"/>
      </g>
      <text id="Ufo_Night-3" data-name="Ufo Night" transform="translate(729 209)" fill="#fff" font-size="14" font-family="SegoeUI, Segoe UI" letter-spacing="-0.08em"><tspan x="0" y="0">Ufo Night</tspan></text>
    </g>
    <g id="Group_42" data-name="Group 42" transform="translate(-953 45)">
      <g id="Group_2-6" data-name="Group 2" transform="translate(1653 668)">
        <rect id="Rectangle_5-10" data-name="Rectangle 5" width="131" height="38" rx="19" fill="#357edc"/>
        <text id="Edit-3" data-name="Edit" transform="translate(48 28)" fill="#fff" font-size="22" font-family="SegoeUI, Segoe UI" letter-spacing="-0.09em"><tspan x="0" y="0">Edit</tspan></text>
      </g>
    </g>
    <g id="Group_43" data-name="Group 43" transform="translate(-811 45)">
      <g id="Group_2-7" data-name="Group 2" transform="translate(1653 668)">
        <rect id="Rectangle_5-11" data-name="Rectangle 5" width="131" height="38" rx="19" fill="#357edc"/>
        <text id="Delete-3" data-name="Delete" transform="translate(39 28)" fill="#fff" font-size="22" font-family="SegoeUI, Segoe UI" letter-spacing="-0.09em"><tspan x="0" y="0">Delete</tspan></text>
      </g>
    </g>
    <g id="Group_44" data-name="Group 44" transform="translate(-21 603)">
      <g id="Path_21-4" data-name="Path 21" transform="translate(446 184)" fill="#676767">
        <path d="M 244.9593658447266 147.6608734130859 L 18.43779563903809 147.6608734130859 C 13.64642906188965 147.6608734130859 9.141862869262695 145.7950134277344 5.753862857818604 142.4070434570313 C 2.365862607955933 139.01904296875 0.4999959468841553 134.5144805908203 0.4999959468841553 129.7231140136719 L 0.4999959468841553 18.43781089782715 C 0.4999959468841553 13.64644432067871 2.365862607955933 9.141878128051758 5.753862857818604 5.753877639770508 C 9.141862869262695 2.365877628326416 13.64642906188965 0.5000110268592834 18.43779563903809 0.5000110268592834 L 244.9593658447266 0.5000110268592834 C 249.750732421875 0.5000110268592834 254.2552947998047 2.365877628326416 257.643310546875 5.753877639770508 C 261.03125 9.141878128051758 262.8971252441406 13.64644432067871 262.8971252441406 18.43781089782715 L 262.8971252441406 129.7231140136719 C 262.8971252441406 134.5144805908203 261.03125 139.01904296875 257.643310546875 142.4070434570313 C 254.2552947998047 145.7950134277344 249.750732421875 147.6608734130859 244.9593658447266 147.6608734130859 Z" stroke="none"/>
        <path d="M 18.43778991699219 1.000015258789063 C 13.77999877929688 1.000015258789063 9.400955200195313 2.8138427734375 6.107391357421875 6.107406616210938 C 2.8138427734375 9.400970458984375 1 13.78001403808594 1 18.43780517578125 L 1 129.7231140136719 C 1 134.3809051513672 2.8138427734375 138.7599182128906 6.107391357421875 142.0534820556641 C 9.400955200195313 145.3470458984375 13.77999877929688 147.1608734130859 18.43778991699219 147.1608734130859 L 244.9593658447266 147.1608734130859 C 249.6171569824219 147.1608734130859 253.9961547851563 145.3470458984375 257.2897338867188 142.0534820556641 C 260.5832824707031 138.7599182128906 262.3971252441406 134.3809051513672 262.3971252441406 129.7231140136719 L 262.3971252441406 18.43780517578125 C 262.3971252441406 13.78001403808594 260.5832824707031 9.400970458984375 257.2897338867188 6.107406616210938 C 253.9961547851563 2.8138427734375 249.6171569824219 1.000015258789063 244.9593658447266 1.000015258789063 L 18.43778991699219 1.000015258789063 M 18.43778991699219 1.52587890625e-05 L 244.9593658447266 1.52587890625e-05 C 255.1422271728516 1.52587890625e-05 263.3971252441406 8.2548828125 263.3971252441406 18.43780517578125 L 263.3971252441406 129.7231140136719 C 263.3971252441406 139.906005859375 255.1422271728516 148.1608734130859 244.9593658447266 148.1608734130859 L 18.43778991699219 148.1608734130859 C 8.254867553710938 148.1608734130859 0 139.906005859375 0 129.7231140136719 L 0 18.43780517578125 C 0 8.2548828125 8.254867553710938 1.52587890625e-05 18.43778991699219 1.52587890625e-05 Z" stroke="none" fill="#707070"/>
      </g>
      <text id="Ufo_Night-4" data-name="Ufo Night" transform="translate(729 209)" fill="#fff" font-size="14" font-family="SegoeUI, Segoe UI" letter-spacing="-0.08em"><tspan x="0" y="0">Ufo Night</tspan></text>
    </g>
    <g id="Group_45" data-name="Group 45" transform="translate(-951 224)">
      <g id="Group_2-8" data-name="Group 2" transform="translate(1653 668)">
        <rect id="Rectangle_5-12" data-name="Rectangle 5" width="131" height="38" rx="19" fill="#357edc"/>
        <text id="Edit-4" data-name="Edit" transform="translate(48 28)" fill="#fff" font-size="22" font-family="SegoeUI, Segoe UI" letter-spacing="-0.09em"><tspan x="0" y="0">Edit</tspan></text>
      </g>
    </g>
    <g id="Group_46" data-name="Group 46" transform="translate(-809 224)">
      <g id="Group_2-9" data-name="Group 2" transform="translate(1653 668)">
        <rect id="Rectangle_5-13" data-name="Rectangle 5" width="131" height="38" rx="19" fill="#357edc"/>
        <text id="Delete-4" data-name="Delete" transform="translate(39 28)" fill="#fff" font-size="22" font-family="SegoeUI, Segoe UI" letter-spacing="-0.09em"><tspan x="0" y="0">Delete</tspan></text>
      </g>
    </g>
    <g id="Group_47" data-name="Group 47" transform="translate(0 58)">
      <g id="Group_4" data-name="Group 4" transform="translate(141 180)">
        <g id="Group_2-10" data-name="Group 2" transform="translate(1351 56)">
          <rect id="Rectangle_5-14" data-name="Rectangle 5" width="180" height="55" rx="27.5" transform="translate(89 559)" fill="#357edc"/>
          <text id="Save" transform="translate(160 596)" fill="#fff" font-size="22" font-family="SegoeUI, Segoe UI" letter-spacing="-0.09em"><tspan x="0" y="0">Save</tspan></text>
          <text id="Save-2" data-name="Save" transform="translate(160 596)" fill="#fff" font-size="22" font-family="SegoeUI, Segoe UI" letter-spacing="-0.09em"><tspan x="0" y="0">Save</tspan></text>
        </g>
      </g>
      <g id="Group_34" data-name="Group 34" transform="translate(-65 180)">
        <g id="Group_2-11" data-name="Group 2" transform="translate(1351 56)">
          <rect id="Rectangle_5-15" data-name="Rectangle 5" width="180" height="55" rx="27.5" transform="translate(89 559)" fill="#dc3535"/>
          <text id="Cancel" transform="translate(152 596)" fill="#fff" font-size="22" font-family="SegoeUI, Segoe UI" letter-spacing="-0.09em"><tspan x="0" y="0">Cancel</tspan></text>
        </g>
      </g>
      <g id="Rectangle_40" data-name="Rectangle 40" transform="translate(1330 164)" fill="#fff" stroke="#707070" stroke-width="1">
        <rect width="475" height="50" rx="25" stroke="none"/>
        <rect x="0.5" y="0.5" width="474" height="49" rx="24.5" fill="none"/>
      </g>
      <text id="Title" transform="translate(1330 151)" fill="#fff" font-size="33" font-family="SegoeUI, Segoe UI" letter-spacing="-0.05em"><tspan x="0" y="0">Title</tspan></text>
      <g id="Rectangle_41" data-name="Rectangle 41" transform="translate(1330 281)" fill="#fff" stroke="#707070" stroke-width="1">
        <rect width="475" height="50" rx="25" stroke="none"/>
        <rect x="0.5" y="0.5" width="474" height="49" rx="24.5" fill="none"/>
      </g>
      <text id="Link" transform="translate(1330 268)" fill="#fff" font-size="33" font-family="SegoeUI, Segoe UI" letter-spacing="-0.05em"><tspan x="0" y="0">Link</tspan></text>
      <g id="Rectangle_42" data-name="Rectangle 42" transform="translate(1330 404)" fill="#fff" stroke="#707070" stroke-width="1">
        <rect width="475" height="360" rx="32" stroke="none"/>
        <rect x="0.5" y="0.5" width="474" height="359" rx="31.5" fill="none"/>
      </g>
      <text id="Description" transform="translate(1330 391)" fill="#fff" font-size="33" font-family="SegoeUI, Segoe UI" letter-spacing="-0.05em"><tspan x="0" y="0">Description</tspan></text>
    </g>
  </g>
</svg>
